<svg width="1381" height="1277" viewBox="0 0 1381 1277" className={(props as any).className} >
      <g id="Page-1" stroke="none" stroke-width="1" fill="none" fill-rule="evenodd">
        <rect id="Rectangle" fill="#B9D2E7" x="0" y="0" width="1381" height="368"></rect>
        <polygon id="Path-11" fill="#0365B7" points="0.211208862 272 1380.97189 339.285459 1380.97189 1261.85509 7.27187128 1261.85509"></polygon>
        <polygon id="Path-8" fill="#143F68" points="798.24465 272 447 446.046529 1380.24399 788.356916 1380.24399 362.471567"></polygon>
        <polygon id="Path-9" fill="#73B3DD" points="270 452 534.759114 402.519235 612 452"></polygon>
        <polygon id="Path-3" fill="#2B3030" points="2.26154871e-13 886.72296 0 414 1381 501.1673 1381 886.72296"></polygon>
        <polygon id="Path-6" fill="#373830" opacity="0.9328125" points="1380.62169 746.858687 1011 630.89636 1215.91821 0 1380.62169 2.84217094e-14"></polygon>
        <polygon id="Path-2" fill="#3C463C" points="0.239316315 497 1380.76068 629.614673 1380.76068 1276.08761 0.239316315 1276.08761"></polygon>
        <polygon id="Path-13" fill="#573941" transform="translate(913.868033, 700.750019) rotate(9.000000) translate(-913.868033, -700.750019) " points="988.567943 649.049117 988.567943 752.450921 839.168123 752.450921 839.168123 649.049117"></polygon>
        <polygon id="flame_base2" fill-opacity="0.706776495" fill="#573941" opacity="0.767633929" transform="translate(908.049838, 727.481956) rotate(7.000000) translate(-908.049838, -727.481956) " points="1050.08302 690.949366 1016.67881 785.329472 766.016655 789.551671 802.574944 665.412241"></polygon>
        <polygon id="flame_base1" fill="#FF6D01" transform="translate(913.513980, 689.441369) rotate(13.000000) translate(-913.513980, -689.441369) " points="975.998318 651.072527 975.998318 727.810211 851.029642 727.810211 851.029642 651.072527"></polygon>
        <polygon id="Path-15" fill="#FAC504" transform="translate(917.037494, 652.805267) rotate(12.000000) translate(-917.037494, -652.805267) " points="967.48206 704.246635 967.48206 601.363898 866.592927 601.363898 866.592927 704.246635"></polygon>
        <polygon id="Path-15" fill="#FAC504" transform="translate(917.212957, 605.455814) rotate(12.000000) translate(-917.212957, -605.455814) " points="937.303422 646.634437 937.303422 564.277191 897.122492 564.277191 897.122492 646.634437"></polygon>
        <polygon id="flame1" fill-opacity="0.687641531" fill="#FFA400" transform="translate(962.427180, 611.762163) rotate(29.000000) translate(-962.427180, -611.762163) " points="979.85436 596 945 596 945 627.524325 979.85436 627.524325"></polygon>
        <polygon id="flame2" fill-opacity="0.687641531" fill="#FFA400" transform="translate(964.274105, 634.168645) rotate(17.000000) translate(-964.274105, -634.168645) " points="981.701285 618.406483 946.846925 618.406483 946.846925 649.930808 981.701285 649.930808"></polygon>
        <polygon id="flame3" fill-opacity="0.687641531" fill="#FFA400" transform="translate(882.912911, 605.735566) rotate(15.000000) translate(-882.912911, -605.735566) " points="900.340091 589.973403 865.485731 589.973403 865.485731 621.497729 900.340091 621.497729"></polygon>
        <polygon id="flame4" fill-opacity="0.687641531" fill="#FFA400" transform="translate(903.683603, 561.955964) rotate(27.000000) translate(-903.683603, -561.955964) " points="921.110783 546.193801 886.256423 546.193801 886.256423 577.718127 921.110783 577.718127"></polygon>
      </g>
    </svg>